<?xml version="1.0" standalone="no"?><!DOCTYPE svg PUBLIC "-//W3C//DTD SVG 1.1//EN" "http://www.w3.org/Graphics/SVG/1.1/DTD/svg11.dtd"><svg t="1722876348605" class="icon" viewBox="0 0 1024 1024" version="1.1" xmlns="http://www.w3.org/2000/svg" p-id="5303" xmlns:xlink="http://www.w3.org/1999/xlink" width="200" height="200"><path d="M125.099 329.899H898.9v500.736a22.699 22.699 0 0 1-22.869 22.698H147.968a22.699 22.699 0 0 1-22.699-22.698V329.899h-0.17z" fill="#FFB038" p-id="5304"></path><path d="M182.101 193.365H841.9a56.832 56.832 0 0 1 56.832 56.832V329.9H125.099v-79.531a56.832 56.832 0 0 1 57.002-57.003z" fill="#F6716F" p-id="5305"></path><path d="M125.099 329.899v421.034a34.133 34.133 0 0 0 34.133 34.134H716.8A56.661 56.661 0 0 0 757.077 768L883.03 642.048a56.32 56.32 0 0 0 17.067-40.107V328.875z" fill="#FFE3BA" p-id="5306"></path><path d="M512 670.037c-133.29 0-262.997-5.12-386.901-14.506v95.402a34.133 34.133 0 0 0 34.133 34.134H716.8A56.661 56.661 0 0 0 757.077 768L867.67 657.408A5009.481 5009.481 0 0 1 512 670.038z" fill="#FFC670" p-id="5307"></path><path d="M756.224 768l125.952-125.952a58.539 58.539 0 0 0 11.435-17.067H774.144a34.133 34.133 0 0 0-34.133 34.134V778.58A53.077 53.077 0 0 0 756.224 768z" fill="#FFB038" p-id="5308"></path><path d="M227.499 426.667h90.965v90.965h-90.965z m0 170.666h90.965V688.3h-90.965z" fill="#FFF6E6" p-id="5309"></path><path d="M915.968 250.368a74.24 74.24 0 0 0-74.07-74.07h-54.954v-5.631a17.067 17.067 0 0 0-34.133 0v5.632h-94.72v-5.632a17.067 17.067 0 0 0-34.134 0v5.632h-94.89v-5.632a17.067 17.067 0 0 0-34.134 0v5.632h-94.89v-5.632a17.067 17.067 0 1 0-34.134 0v5.632h-94.72v-5.632a17.067 17.067 0 0 0-34.133 0v5.632h-54.955a74.24 74.24 0 0 0-74.069 74.069v580.267a39.936 39.936 0 0 0 39.936 39.765h728.064a39.936 39.936 0 0 0 39.936-39.765v-504.15z m-142.336 358.4a51.2 51.2 0 0 0-51.2 51.2V768a39.765 39.765 0 0 1-5.632 0H159.232a17.067 17.067 0 0 1-17.067-17.067V346.965h739.67v256a44.032 44.032 0 0 1 0 6.486z m83.968 34.133L756.565 743.936v-83.968a17.067 17.067 0 0 1 17.067-17.067zM182.101 210.432h54.955v5.803a17.067 17.067 0 1 0 34.133 0v-5.803h94.72v5.803a17.067 17.067 0 0 0 34.134 0v-5.803h94.89v5.803a17.067 17.067 0 1 0 34.134 0v-5.803h94.89v5.803a17.067 17.067 0 1 0 34.134 0v-5.803h94.72v5.803a17.067 17.067 0 1 0 34.133 0v-5.803h54.955a39.936 39.936 0 0 1 39.936 39.936v62.464h-739.67v-62.464a39.936 39.936 0 0 1 39.936-39.936z m693.931 625.835H147.968a5.803 5.803 0 0 1-5.803-5.632V799.06a52.053 52.053 0 0 0 17.067 3.072H716.8A73.557 73.557 0 0 0 768 780.46l113.493-113.494v163.67a5.803 5.803 0 0 1-5.461 5.632z" fill="#3D3D63" p-id="5310"></path><path d="M187.733 266.24a17.067 17.067 0 1 0 34.134 0 17.067 17.067 0 1 0-34.134 0zM802.133 266.24a17.067 17.067 0 1 0 34.134 0 17.067 17.067 0 1 0-34.134 0zM318.635 409.6h-91.136a17.067 17.067 0 0 0-17.067 17.067v90.965a17.067 17.067 0 0 0 17.067 17.067h91.136a17.067 17.067 0 0 0 17.066-17.067v-90.965a17.067 17.067 0 0 0-17.066-17.067z m-17.067 90.965h-57.003v-56.832h57.003z m17.067 79.702h-91.136a17.067 17.067 0 0 0-17.067 17.066V688.3a17.067 17.067 0 0 0 17.067 17.066h91.136A17.067 17.067 0 0 0 335.7 688.3v-90.966a17.067 17.067 0 0 0-17.066-17.066z m-17.067 90.965h-57.003V614.4h57.003z m83.456-216.064h62.464a17.067 17.067 0 0 0 0-34.133h-62.464a17.067 17.067 0 0 0 0 34.133z m164.864 34.133H385.024a17.067 17.067 0 0 0 0 34.134h164.864a17.067 17.067 0 0 0 0-34.134zM385.024 625.835h62.464a17.067 17.067 0 0 0 0-34.134h-62.464a17.067 17.067 0 0 0 0 34.134z m164.864 34.133H385.024a17.067 17.067 0 0 0 0 34.133h164.864a17.067 17.067 0 0 0 0-34.133z" fill="#3D3D63" p-id="5311"></path></svg>