<?xml version="1.0" standalone="no"?><!DOCTYPE svg PUBLIC "-//W3C//DTD SVG 1.1//EN" "http://www.w3.org/Graphics/SVG/1.1/DTD/svg11.dtd"><svg t="1722994221692" class="icon" viewBox="0 0 1024 1024" version="1.1" xmlns="http://www.w3.org/2000/svg" p-id="5356" xmlns:xlink="http://www.w3.org/1999/xlink" width="200" height="200"><path d="M512 987.428571a475.428571 475.428571 0 1 0 0-950.857142 475.428571 475.428571 0 0 0 0 950.857142z" fill="#EE6A5F" p-id="5357"></path><path d="M288.329143 736.329143a47.542857 47.542857 0 0 1 0-67.218286L669.330286 288.182857a47.542857 47.542857 0 1 1 67.291428 67.291429l-381.074285 380.928a47.542857 47.542857 0 0 1-67.218286 0z" fill="#730100" p-id="5358"></path><path d="M288.109714 288.182857a47.542857 47.542857 0 0 1 67.291429 0l380.928 381.074286a47.542857 47.542857 0 0 1-67.291429 67.291428L288.182857 355.474286a47.542857 47.542857 0 0 1 0-67.291429z" fill="#730100" p-id="5359"></path></svg>