<?xml version="1.0" standalone="no"?><!DOCTYPE svg PUBLIC "-//W3C//DTD SVG 1.1//EN" "http://www.w3.org/Graphics/SVG/1.1/DTD/svg11.dtd"><svg t="1722994259651" class="icon" viewBox="0 0 1024 1024" version="1.1" xmlns="http://www.w3.org/2000/svg" p-id="6547" xmlns:xlink="http://www.w3.org/1999/xlink" width="200" height="200"><path d="M512 512m-512 0a512 512 0 1 0 1024 0 512 512 0 1 0-1024 0Z" fill="#41B243" p-id="6548"></path><path d="M512 512m-469.333333 0a469.333333 469.333333 0 1 0 938.666666 0 469.333333 469.333333 0 1 0-938.666666 0Z" fill="#34C348" p-id="6549"></path><path d="M298.666667 384l341.333333 341.333333H341.333333a42.666667 42.666667 0 0 1-42.666666-42.666666V384z m384-85.333333a42.666667 42.666667 0 0 1 42.666666 42.666666v298.666667l-341.333333-341.333333z" fill="#0A6D09" p-id="6550"></path></svg>