<?xml version="1.0" standalone="no"?><!DOCTYPE svg PUBLIC "-//W3C//DTD SVG 1.1//EN" "http://www.w3.org/Graphics/SVG/1.1/DTD/svg11.dtd"><svg t="1722994322939" class="icon" viewBox="0 0 1024 1024" version="1.1" xmlns="http://www.w3.org/2000/svg" p-id="7830" xmlns:xlink="http://www.w3.org/1999/xlink" width="200" height="200"><path d="M512 512m-512 0a512 512 0 1 0 1024 0 512 512 0 1 0-1024 0Z" fill="#E2A01D" p-id="7831"></path><path d="M512 512m-469.333333 0a469.333333 469.333333 0 1 0 938.666666 0 469.333333 469.333333 0 1 0-938.666666 0Z" fill="#FFBE2F" p-id="7832"></path><path d="M768 469.333333a42.666667 42.666667 0 0 1 7.68 84.650667L768 554.666667H256a42.666667 42.666667 0 0 1-7.68-84.650667L256 469.333333h512z" fill="#995901" p-id="7833"></path></svg>